<?xml version="1.0" standalone="no"?>
<!DOCTYPE svg PUBLIC "-//W3C//DTD SVG 20010904//EN"
 "http://www.w3.org/TR/2001/REC-SVG-20010904/DTD/svg10.dtd">
<svg version="1.0" xmlns="http://www.w3.org/2000/svg"
 width="500.000000pt" height="500.000000pt" viewBox="0 0 500.000000 500.000000"
 preserveAspectRatio="xMidYMid meet">
<metadata>
Created by potrace 1.14, written by Peter Selinger 2001-2017
</metadata>
<g transform="translate(0.000000,500.000000) scale(0.100000,-0.100000)"
fill="#000000" stroke="none">
<path d="M1688 4305 c-2 -2 -17 -5 -34 -8 -59 -9 -184 -92 -177 -118 2 -5 -2
-9 -8 -9 -5 0 -19 -21 -30 -46 -24 -52 -39 -194 -21 -194 6 0 9 -6 6 -14 -10
-27 141 -306 166 -306 5 0 11 -8 14 -18 9 -27 107 -122 120 -115 6 3 8 2 3 -2
-9 -11 22 -45 41 -45 9 0 12 -3 9 -6 -7 -8 81 -71 160 -116 29 -16 53 -26 53
-21 0 4 4 2 9 -5 4 -7 14 -14 22 -16 8 -1 24 -7 35 -14 39 -21 116 -44 130
-38 10 4 12 2 8 -6 -5 -7 0 -9 14 -6 13 4 20 2 16 -4 -3 -5 0 -8 7 -7 8 2 41
-3 74 -11 75 -16 269 -19 353 -5 35 5 61 13 58 16 -3 3 8 4 24 1 19 -3 30 0
30 7 0 7 4 10 9 7 8 -5 105 20 126 32 6 4 15 7 22 8 22 4 123 58 123 67 0 4 4
6 8 3 11 -7 72 31 72 44 0 6 4 9 9 6 9 -6 88 54 103 78 4 6 8 8 8 4 0 -13 92
82 143 147 84 107 100 132 91 147 -4 6 -3 8 4 4 6 -4 21 16 36 49 15 30 26 56
25 57 -2 2 3 13 10 26 18 33 22 59 22 121 -1 56 -19 131 -31 131 -5 0 -11 11
-14 25 -4 14 -11 25 -16 25 -6 0 -10 6 -10 13 0 13 -73 71 -85 67 -4 -1 -11 4
-15 11 -11 17 -115 37 -175 32 -28 -2 -73 -15 -102 -30 -52 -26 -133 -101
-133 -123 0 -6 -7 -18 -15 -27 -8 -8 -13 -19 -10 -24 4 -5 1 -9 -4 -9 -6 0
-11 -5 -11 -11 0 -27 -126 -179 -148 -179 -5 0 -15 -6 -21 -14 -12 -14 -66
-43 -86 -46 -5 -1 -14 -5 -20 -10 -5 -4 -27 -11 -47 -15 -21 -4 -36 -10 -34
-14 9 -14 -201 -2 -259 15 -33 10 -62 20 -65 24 -5 5 -63 33 -67 31 -2 0 -14
11 -29 24 -15 14 -31 22 -37 18 -5 -3 -7 -1 -4 4 8 13 -27 46 -38 36 -4 -5 -5
-3 -2 3 4 6 -5 24 -18 38 -14 15 -25 31 -25 37 0 5 -9 18 -20 29 -11 11 -18
20 -15 20 7 0 -33 79 -58 112 -11 15 -24 25 -29 22 -4 -3 -8 1 -8 10 0 23
-121 77 -184 80 -30 2 -56 2 -58 1z"/>
<path d="M2270 3050 c-345 -72 -642 -298 -794 -605 -51 -102 -64 -149 -60
-219 7 -118 80 -223 191 -273 50 -22 68 -25 134 -21 135 8 216 66 290 209 104
200 284 306 501 294 99 -5 169 -28 254 -84 80 -52 131 -110 189 -214 87 -156
160 -205 308 -205 85 0 151 27 213 88 63 62 88 122 88 220 1 82 -1 89 -45 180
-56 114 -151 249 -222 316 -81 76 -152 134 -164 134 -6 0 -13 4 -15 9 -9 24
-222 123 -328 153 -153 42 -388 50 -540 18z"/>
<path d="M1626 1826 c-196 -73 -268 -267 -172 -468 111 -234 307 -431 543
-546 85 -41 222 -87 293 -97 25 -4 59 -9 75 -12 43 -7 211 -6 275 2 379 46
717 286 889 632 56 111 65 157 49 245 -44 242 -340 342 -520 176 -28 -27 -62
-75 -88 -126 -171 -333 -581 -403 -846 -145 -31 31 -76 97 -108 161 -61 121
-153 183 -276 189 -48 2 -89 -2 -114 -11z"/>
</g>
</svg>
